<svg width="237" height="65" viewBox="0 0 237 65" fill="none" xmlns="http://www.w3.org/2000/svg">
<path d="M35.844 0H51.5576V40.7331C51.5576 45.5762 50.5026 49.7675 48.3923 53.3067C46.301 56.8253 43.3805 59.5471 39.6313 61.4721C35.8818 63.3761 31.5295 64.3282 26.5744 64.3282C21.5814 64.3282 17.2102 63.3761 13.4609 61.4721C9.71146 59.5471 6.79109 56.8253 4.69973 53.3067C2.6272 49.7675 1.59094 45.5762 1.59094 40.7331V0H17.3044V39.2427C17.3044 41.209 17.7001 42.9682 18.4914 44.5206C19.2828 46.0522 20.3755 47.2527 21.7698 48.122C23.1829 48.9914 24.7844 49.426 26.5744 49.426C28.3829 49.426 29.9846 48.9914 31.3788 48.122C32.773 47.2527 33.8658 46.0522 34.6572 44.5206C35.4483 42.9682 35.844 41.209 35.844 39.2427V0ZM75.8698 0L85.3657 18.5037H85.8179L95.4267 0H112.949L95.6528 31.7915L113.627 63.5832H95.6528L85.8179 44.7069H85.3657L75.5305 63.5832H57.6692L75.4176 31.7915L58.2345 0H75.8698Z" fill="#1937B2"/>
<path d="M122.176 53.6882V40.4801L145.791 0.856078H157.026V18.4668H150.606L137.881 39.991V40.4801H172.731V53.6882H122.176ZM150.721 63.4721V49.6524L151.064 43.9047V0.856078H165.967V63.4721H150.721ZM217.418 21.5242C217.17 20.444 216.778 19.4962 216.243 18.6808C215.708 17.8452 215.039 17.1419 214.237 16.5712C213.453 15.9801 212.536 15.5419 211.485 15.2565C210.454 14.9508 209.317 14.7979 208.075 14.7979C205.4 14.7979 203.117 15.4808 201.225 16.8464C199.353 18.212 197.92 20.179 196.927 22.7472C195.952 25.3154 195.465 28.4136 195.465 32.0418C195.465 35.7106 195.933 38.8497 196.869 41.4587C197.806 44.0677 199.2 46.0651 201.054 47.4513C202.907 48.8372 205.209 49.5303 207.96 49.5303C210.387 49.5303 212.403 49.1531 214.007 48.3989C215.632 47.6448 216.845 46.5747 217.647 45.1886C218.45 43.8027 218.851 42.1719 218.851 40.2969L221.602 40.6026H208.19V28.4952H234.212V37.1783C234.212 42.8855 233.075 47.7672 230.802 51.8234C228.547 55.8592 225.433 58.9574 221.459 61.1179C217.504 63.2582 212.966 64.3282 207.846 64.3282C202.133 64.3282 197.118 63.0338 192.8 60.4452C188.482 57.8567 185.109 54.1674 182.683 49.3775C180.276 44.5875 179.072 38.8903 179.072 32.2864C179.072 27.109 179.807 22.523 181.279 18.528C182.769 14.533 184.832 11.1596 187.469 8.40791C190.106 5.63586 193.153 3.5466 196.611 2.14018C200.07 0.713397 203.776 0 207.731 0C211.209 0 214.437 0.529954 217.418 1.58986C220.418 2.62938 223.064 4.11732 225.357 6.05369C227.669 7.96968 229.531 10.2424 230.945 12.8717C232.359 15.5011 233.219 18.3853 233.525 21.5242H217.418Z" fill="#A066CC"/>
</svg>
